<svg xmlns="http://www.w3.org/2000/svg" viewBox="0 0 3372 1222" role="img" aria-label="Medify"><defs><linearGradient id="g_501" x1="0" y1="0" x2="1" y2="0"><stop offset="0" stop-color="#2E8086"/><stop offset="1" stop-color="#62C6CD"/></linearGradient><clipPath id="c_501"><rect x="-99999" y="0" width="199998" height="99999"/></clipPath></defs><g transform="translate(10.0,820.0) scale(1,-1)"><path fill="#0C1A36" d="M334 535Q408 535 448 499Q479 470 494 425Q507 449 532 474Q558 500 595.0 517.5Q632 535 674 535Q743 535 781.0 505.5Q819 476 834.0 426.5Q849 377 849 316V51Q849 29 835.0 14.5Q821 0 799 0Q778 0 763.5 14.5Q749 29 749 51V315Q749 350 739.5 379.0Q730 408 706.5 425.5Q683 443 642 443Q603 443 572.5 425.5Q542 408 525.0 379.0Q508 350 508 315V51Q508 29 494.0 14.5Q480 0 458.0 0.0Q436 0 422.0 14.5Q408 29 408 51V316Q408 351 398.5 380.0Q389 409 366.0 426.0Q343 443 302 443Q263 443 233.0 426.0Q203 409 186.5 380.0Q170 351 170 316V51Q170 29 155.5 14.5Q141 0 120 0Q98 0 84.0 14.5Q70 29 70 51V475Q70 497 84.0 511.5Q98 526 120 526Q141 526 155.5 511.5Q170 497 170 475V444Q172 447 174 450Q190 473 214.5 492.0Q239 511 269.0 523.0Q299 535 334 535Z M1234 -10Q1151 -10 1090.0 24.5Q1029 59 995.5 119.5Q962 180 962 258Q962 346 997.5 408.5Q1033 471 1090.0 504.5Q1147 538 1211 538Q1260 538 1304.0 518.5Q1348 499 1382.5 464.5Q1417 430 1437.0 383.5Q1457 337 1458 282Q1457 262 1442.0 249.0Q1427 236 1407 236H1060Q1064 198 1081 168Q1104 127 1143.0 104.5Q1182 82 1229 82Q1266 82 1290.0 89.5Q1314 97 1330.0 108.0Q1346 119 1358 129Q1373 138 1388 138Q1406 138 1418.0 125.5Q1430 113 1430 96Q1430 74 1408 56Q1381 30 1333.5 10.0Q1286 -10 1234 -10Z M1063 321H1351V328Q1349 363 1328.0 389.5Q1307 416 1276.0 430.5Q1245 445 1211 445Q1181 445 1153.5 435.5Q1126 426 1104.5 405.0Q1083 384 1071 350Q1066 336 1063 321Z M2002 740Q2024 740 2038.0 726.0Q2052 712 2052 689V51Q2052 29 2038.0 14.5Q2024 0 2002 0Q1981 0 1966.5 14.5Q1952 29 1952 51V72Q1939 55 1919 38Q1894 17 1860.0 3.5Q1826 -10 1787 -10Q1718 -10 1663.0 25.5Q1608 61 1576.0 122.5Q1544 184 1544.0 264.0Q1544 344 1576.0 405.5Q1608 467 1662.5 502.5Q1717 538 1784 538Q1826 538 1862.5 524.0Q1899 510 1926 488Q1941 476 1952 463V689Q1952 711 1966.5 725.5Q1981 740 2002 740Z M1798 82Q1846 82 1881.5 106.0Q1917 130 1937.0 171.0Q1957 212 1957.0 264.0Q1957 316 1937.0 357.0Q1917 398 1881.0 422.0Q1845 446 1798 446Q1752 446 1716.5 422.0Q1681 398 1660.5 357.0Q1640 316 1640.0 264.0Q1640 212 1660.5 171.0Q1681 130 1716.5 106.0Q1752 82 1798 82Z M2286 51Q2286 29 2272.0 14.5Q2258 0 2236 0Q2215 0 2200.5 14.5Q2186 29 2186 51V479Q2186 501 2200.5 515.5Q2215 530 2236 530Q2258 530 2272.0 515.5Q2286 501 2286 479Z M2235 596Q2206 596 2193.0 606.5Q2180 617 2180 642V658Q2180 683 2194.0 693.0Q2208 703 2236 703Q2266 703 2279.0 692.5Q2292 682 2292 658V642Q2292 616 2278.5 606.0Q2265 596 2235 596Z M2666 739Q2685 739 2705.0 734.0Q2725 729 2738.5 717.5Q2752 706 2752.0 686.0Q2752 666 2740.0 653.5Q2728 641 2712 641Q2702 641 2685.0 645.5Q2668 650 2651 650Q2628 650 2614.0 639.5Q2600 629 2594.0 613.5Q2588 598 2588 583V517H2686Q2706 517 2719.0 504.0Q2732 491 2732.0 471.0Q2732 451 2719.0 438.0Q2706 425 2686 425H2588V51Q2588 29 2573.5 14.5Q2559 0 2538 0Q2516 0 2502.0 14.5Q2488 29 2488 51V425H2427Q2408 425 2394.5 438.0Q2381 451 2381.0 471.0Q2381 491 2394.5 504.0Q2408 517 2427 517H2488V582Q2488 651 2533.5 695.0Q2579 739 2666 739Z"/><g clip-path="url(#c_501)"><path fill="#0C1A36" d="M3223 530Q3245 530 3259.0 515.5Q3273 501 3273 479V49Q3273 -39 3239.5 -94.0Q3206 -149 3149.5 -174.5Q3093 -200 3022 -200Q2986 -200 2950.0 -193.5Q2914 -187 2891 -175Q2867 -164 2857.0 -148.0Q2847 -132 2854 -113Q2861 -89 2878.0 -80.5Q2895 -72 2913 -79Q2930 -86 2958.0 -97.0Q2986 -108 3022 -108Q3071 -108 3105.0 -92.0Q3139 -76 3156.5 -42.0Q3174 -8 3174 46V64Q3163 48 3148 36Q3122 14 3086.5 2.0Q3051 -10 3008 -10Q2953 -10 2913.5 14.5Q2874 39 2853.0 82.5Q2832 126 2832 182V479Q2832 501 2846.0 515.5Q2860 530 2882 530Q2903 530 2917.5 515.5Q2932 501 2932 479V209Q2932 143 2961.0 112.5Q2990 82 3047 82Q3085 82 3113.0 98.0Q3141 114 3157.0 142.5Q3173 171 3173 209V479Q3173 501 3187.5 515.5Q3202 530 3223 530Z"/></g><path fill="none" stroke="url(#g_501)" stroke-width="95.8" stroke-linecap="round" d="M3222.5 0.1 A364.4 364.4 0 0 0 2552.7 -89.3"/></g></svg>