<svg xmlns="http://www.w3.org/2000/svg" viewBox="0 0 3775 1537" role="img" aria-label="ميدفاي Medify"><defs><linearGradient id="g_502" x1="0" y1="0" x2="1" y2="0"><stop offset="0" stop-color="#2E8086"/><stop offset="1" stop-color="#62C6CD"/></linearGradient><clipPath id="hi_502"><rect x="-99999" y="266" width="199998" height="99999"/></clipPath><clipPath id="lo_502"><rect x="-99999" y="-99999" width="199998" height="100264"/></clipPath></defs><g transform="translate(44.0,929.0) scale(1,-1)"><path fill="#0C1A36" d="M1020 0V849H1154V154H1268Q1278 154 1283.0 133.0Q1288 112 1288 78Q1288 43 1283.0 21.5Q1278 0 1268 0Z M1268 0Q1258 0 1253.0 21.5Q1248 43 1248.0 78.0Q1248 113 1253.0 133.5Q1258 154 1268 154H1403Q1385 201 1385 256Q1385 336 1422.0 397.5Q1459 459 1521.5 494.0Q1584 529 1660 529Q1717 529 1770.0 512.0Q1823 495 1865 475V0Z M1543 154H1731V369Q1729 370 1727 371Q1688 381 1655 381Q1611 381 1578.0 364.5Q1545 348 1527.0 319.5Q1509 291 1509 255Q1509 209 1532 171Q1537 162 1543 154Z M1661 652Q1627 652 1604.0 675.0Q1581 698 1581 732Q1581 767 1604.0 789.5Q1627 812 1661 812Q1696 812 1718.5 789.5Q1741 767 1741 732Q1741 698 1718.5 675.0Q1696 652 1661 652Z M2553 0H1957V154H2318Q2312 173 2305 190Q2268 273 2200.0 328.5Q2132 384 2036 407L2065 553Q2191 524 2282.0 447.0Q2373 370 2424 256Q2445 208 2457 154H2553Q2563 154 2568.0 133.0Q2573 112 2573 78Q2573 43 2568.0 21.5Q2563 0 2553 0Z M2553 0Q2543 0 2538.0 21.5Q2533 43 2533.0 78.0Q2533 113 2538.0 133.5Q2543 154 2553 154H2606Q2647 154 2668.0 160.5Q2689 167 2696.0 185.5Q2703 204 2703 237V501H2837V237Q2837 204 2844.0 185.5Q2851 167 2872.0 160.5Q2893 154 2934 154H2972Q2982 154 2987.0 133.0Q2992 112 2992 78Q2992 43 2987.0 21.5Q2982 0 2972 0H2934Q2857 0 2806 27Q2786 38 2770 52Q2754 38 2734 28Q2683 0 2606 0Z M2843 -242Q2814 -242 2794.5 -223.0Q2775 -204 2775 -175Q2775 -145 2794.5 -126.0Q2814 -107 2843 -107Q2872 -107 2891.5 -126.0Q2911 -145 2911 -175Q2911 -204 2891.5 -223.0Q2872 -242 2843 -242Z M2687 -242Q2658 -242 2638.5 -223.0Q2619 -204 2619 -175Q2619 -145 2638.5 -126.0Q2658 -107 2687 -107Q2716 -107 2735.5 -126.0Q2755 -145 2755 -175Q2755 -204 2735.5 -223.0Q2716 -242 2687 -242Z M2972 0Q2962 0 2957.0 21.5Q2952 43 2952.0 78.0Q2952 113 2957.0 133.5Q2962 154 2972 154Q3016 154 3046.5 169.5Q3077 185 3102.0 214.5Q3127 244 3152 285Q3177 323 3204.5 361.0Q3232 399 3265.5 431.0Q3299 463 3340.5 482.0Q3382 501 3434 501Q3489 501 3530.0 478.0Q3571 455 3597.5 415.5Q3624 376 3637.5 324.5Q3651 273 3651 216Q3651 162 3637.0 97.5Q3623 33 3594 -22Q3498 -27 3428.0 -20.5Q3358 -14 3305.0 4.0Q3252 22 3212 51Q3191 65 3172 81Q3132 42 3087 22Q3038 0 2972 0Z M3255 187Q3279 169 3309 157Q3357 137 3425 132Q3462 129 3506 130Q3517 173 3517 216Q3517 285 3495.5 317.0Q3474 349 3433 349Q3407 349 3381.0 334.5Q3355 320 3326.5 287.5Q3298 255 3263 200Q3259 193 3255 187Z"/><g clip-path="url(#lo_502)"><path fill="url(#g_502)" d="M473 -286Q335 -286 237.5 -242.5Q140 -199 88.0 -115.0Q36 -31 36 89Q36 122 40.0 156.5Q44 191 52 228L175 203Q170 168 167.5 141.5Q165 115 165 94Q165 -22 239.5 -77.0Q314 -132 469 -132Q561 -132 624.0 -115.5Q687 -99 720.0 -72.5Q753 -46 753 -17Q753 -3 744.0 9.5Q735 22 716.5 33.5Q698 45 670.0 57.0Q642 69 604 84Q560 103 518.5 123.0Q477 143 444.0 169.5Q411 196 391.5 233.0Q372 270 372 320Q372 367 389.5 407.5Q407 448 439.0 478.0Q471 508 517.0 525.0Q563 542 620 542Q685 542 749.5 520.5Q814 499 877 458L811 337Q760 369 710.5 381.5Q661 394 624 394Q574 394 540.0 374.0Q506 354 506 318Q506 298 517.0 283.0Q528 268 547.5 255.5Q567 243 593.0 232.0Q619 221 649 208Q691 191 733.5 171.0Q776 151 810.5 125.0Q845 99 866.0 63.5Q887 28 887 -20Q887 -64 868.5 -103.5Q850 -143 815.0 -176.0Q780 -209 729.5 -234.0Q679 -259 614.5 -272.5Q550 -286 473 -286Z"/></g><g clip-path="url(#hi_502)"><path fill="#0C1A36" d="M473 -286Q335 -286 237.5 -242.5Q140 -199 88.0 -115.0Q36 -31 36 89Q36 122 40.0 156.5Q44 191 52 228L175 203Q170 168 167.5 141.5Q165 115 165 94Q165 -22 239.5 -77.0Q314 -132 469 -132Q561 -132 624.0 -115.5Q687 -99 720.0 -72.5Q753 -46 753 -17Q753 -3 744.0 9.5Q735 22 716.5 33.5Q698 45 670.0 57.0Q642 69 604 84Q560 103 518.5 123.0Q477 143 444.0 169.5Q411 196 391.5 233.0Q372 270 372 320Q372 367 389.5 407.5Q407 448 439.0 478.0Q471 508 517.0 525.0Q563 542 620 542Q685 542 749.5 520.5Q814 499 877 458L811 337Q760 369 710.5 381.5Q661 394 624 394Q574 394 540.0 374.0Q506 354 506 318Q506 298 517.0 283.0Q528 268 547.5 255.5Q567 243 593.0 232.0Q619 221 649 208Q691 191 733.5 171.0Q776 151 810.5 125.0Q845 99 866.0 63.5Q887 28 887 -20Q887 -64 868.5 -103.5Q850 -143 815.0 -176.0Q780 -209 729.5 -234.0Q679 -259 614.5 -272.5Q550 -286 473 -286Z"/></g><path fill="url(#g_502)" d="M552 -528Q523 -528 503.5 -509.0Q484 -490 484 -461Q484 -431 503.5 -412.0Q523 -393 552 -393Q581 -393 600.5 -412.0Q620 -431 620 -461Q620 -490 600.5 -509.0Q581 -528 552 -528Z M396 -528Q367 -528 347.5 -509.0Q328 -490 328 -461Q328 -431 347.5 -412.0Q367 -393 396 -393Q425 -393 444.5 -412.0Q464 -431 464 -461Q464 -490 444.5 -509.0Q425 -528 396 -528Z"/></g></svg>